<?xml version="1.0" standalone="no"?>
<!DOCTYPE svg PUBLIC "-//W3C//DTD SVG 20010904//EN"
 "http://www.w3.org/TR/2001/REC-SVG-20010904/DTD/svg10.dtd">
<svg version="1.0" xmlns="http://www.w3.org/2000/svg"
 width="954.000000pt" height="1018.000000pt" viewBox="0 0 954.000000 1018.000000"
 preserveAspectRatio="xMidYMid meet">

<g transform="translate(0.000000,1018.000000) scale(0.100000,-0.100000)"
fill="#000000" stroke="none">
<path d="M5530 8968 c-362 -37 -620 -205 -873 -570 -156 -226 -325 -691 -457
-1260 -150 -650 -216 -1068 -260 -1633 -15 -194 -20 -226 -33 -231 -7 -2 -154
-22 -327 -44 -362 -46 -392 -52 -480 -93 -49 -23 -88 -53 -161 -126 -125 -124
-160 -190 -167 -308 -4 -74 -2 -88 22 -137 30 -61 75 -100 150 -129 71 -27
159 -25 576 17 190 18 348 32 352 30 4 -3 5 -35 2 -72 -12 -175 -51 -943 -74
-1437 -16 -362 -13 -771 6 -827 53 -156 254 -236 493 -198 256 42 519 222 573
393 5 18 18 219 28 447 51 1154 81 1796 84 1806 2 6 75 20 162 33 239 33 633
100 687 116 26 8 75 29 110 47 84 44 231 191 277 278 33 61 35 71 35 157 0 86
-2 94 -30 134 -98 139 -195 147 -958 78 -126 -11 -230 -19 -232 -17 -6 5 23
389 35 483 57 421 97 673 141 880 44 209 200 792 221 825 12 19 2 -546 -12
-689 -6 -57 -12 -197 -13 -310 -2 -196 -1 -208 21 -256 31 -68 93 -128 166
-161 53 -24 77 -29 174 -32 222 -8 422 68 573 218 110 109 117 132 135 435 49
846 29 1240 -83 1575 -114 341 -278 508 -554 566 -87 18 -204 23 -309 12z"/>
</g>
</svg>
