<?xml version="1.0" standalone="no"?>
<!DOCTYPE svg PUBLIC "-//W3C//DTD SVG 20010904//EN"
 "http://www.w3.org/TR/2001/REC-SVG-20010904/DTD/svg10.dtd">
<svg version="1.0" xmlns="http://www.w3.org/2000/svg"
 width="416.000000pt" height="592.000000pt" viewBox="0 0 416.000000 592.000000"
 preserveAspectRatio="xMidYMid meet">

<g transform="translate(0.000000,592.000000) scale(0.100000,-0.100000)"
fill="#000000" stroke="none">
<path d="M3285 5214 c-27 -7 -59 -17 -70 -23 -91 -42 -96 -43 -189 -36 -113 8
-250 -13 -339 -51 -81 -36 -237 -139 -315 -210 -150 -135 -357 -437 -473 -691
-92 -200 -106 -233 -151 -368 -22 -66 -42 -121 -43 -123 -1 -1 -24 -5 -51 -8
-27 -3 -98 -16 -159 -29 -60 -13 -135 -28 -165 -34 -31 -7 -70 -20 -88 -31
-30 -19 -32 -23 -26 -58 11 -57 32 -100 57 -116 19 -12 38 -12 132 1 102 13
208 14 220 1 3 -3 -1 -25 -9 -49 -15 -46 -58 -197 -96 -339 -12 -47 -29 -105
-36 -128 -8 -24 -27 -94 -43 -155 -32 -122 -57 -215 -71 -262 -11 -38 -105
-413 -131 -525 -11 -47 -29 -119 -39 -160 -11 -41 -29 -124 -40 -185 -12 -60
-25 -126 -31 -145 -11 -41 -56 -285 -70 -379 -5 -35 -16 -96 -24 -135 -19 -91
-19 -103 3 -110 27 -9 102 -86 123 -128 10 -21 19 -48 19 -62 0 -14 5 -28 10
-31 6 -3 10 -13 10 -22 0 -31 50 -82 112 -112 34 -17 65 -28 68 -24 4 5 12 40
19 78 14 75 101 435 126 519 23 77 64 221 91 316 13 47 35 123 50 170 14 47
29 99 34 115 4 17 15 53 24 80 9 28 20 64 25 80 5 17 24 77 41 135 17 58 40
130 50 160 10 30 41 129 69 220 111 353 346 1068 355 1077 4 4 257 -8 439 -21
26 -2 49 0 51 3 8 12 -15 206 -30 255 -27 92 -32 95 -159 85 -179 -13 -205
-12 -205 9 0 27 80 244 151 412 31 71 191 392 225 449 69 118 204 281 232 281
5 0 7 -36 4 -93 -4 -80 -1 -106 21 -183 15 -49 27 -114 28 -144 4 -127 39
-200 97 -200 36 0 65 26 121 108 54 80 113 209 152 332 48 148 97 279 130 343
l30 57 -25 25 c-56 56 -157 81 -241 59z"/>
</g>
</svg>
