<?xml version="1.0" standalone="no"?>
<!DOCTYPE svg PUBLIC "-//W3C//DTD SVG 20010904//EN"
 "http://www.w3.org/TR/2001/REC-SVG-20010904/DTD/svg10.dtd">
<svg version="1.0" xmlns="http://www.w3.org/2000/svg"
 width="308.000000pt" height="280.000000pt" viewBox="0 0 308.000000 280.000000"
 preserveAspectRatio="xMidYMid meet">

<g transform="translate(0.000000,280.000000) scale(0.100000,-0.100000)"
fill="#000000" stroke="none">
<path d="M775 2673 c-49 -11 -164 -56 -205 -80 -25 -15 -79 -59 -121 -100 -59
-57 -85 -92 -117 -157 -72 -146 -72 -139 -72 -935 0 -436 4 -729 10 -762 36
-189 158 -352 336 -450 17 -10 69 -29 115 -44 l84 -26 760 3 760 3 78 32 c107
43 164 82 244 166 79 84 135 189 158 297 21 99 22 538 1 578 -22 42 -70 72
-116 72 -33 0 -47 -7 -80 -40 l-40 -40 0 -202 c-1 -296 -9 -346 -79 -454 -40
-64 -127 -122 -218 -147 -57 -15 -129 -17 -735 -17 -613 1 -678 2 -733 18 -33
10 -76 27 -95 37 -58 33 -125 108 -161 181 l-34 69 0 725 0 725 22 48 c37 80
81 141 121 166 20 13 48 32 62 41 58 39 104 44 496 49 425 7 404 3 439 78 23
47 13 93 -29 138 l-33 35 -399 -1 c-220 -1 -408 -3 -419 -6z"/>
<path d="M2000 2538 c-19 -13 -45 -39 -57 -57 -21 -31 -23 -46 -23 -155 0 -82
-4 -126 -12 -134 -7 -7 -45 -12 -97 -12 -48 0 -131 -7 -186 -15 -413 -61 -651
-289 -720 -689 -18 -106 -19 -138 -4 -208 16 -72 61 -118 118 -118 59 0 87 17
125 75 119 179 262 265 496 300 118 17 257 22 269 10 5 -6 11 -75 13 -155 3
-135 5 -148 26 -175 50 -64 123 -74 188 -26 74 54 672 666 680 695 18 72 -15
127 -126 209 -30 22 -83 63 -116 91 -34 28 -123 101 -198 161 -288 232 -313
245 -376 203z"/>
</g>
</svg>
